<?xml version="1.0" encoding="utf-8"?>
<!-- Generator: Adobe Illustrator 16.0.0, SVG Export Plug-In . SVG Version: 6.00 Build 0)  -->
<!DOCTYPE svg PUBLIC "-//W3C//DTD SVG 1.1//EN" "http://www.w3.org/Graphics/SVG/1.1/DTD/svg11.dtd">
<svg version="1.1" id="Ebene_1" xmlns="http://www.w3.org/2000/svg" xmlns:xlink="http://www.w3.org/1999/xlink" x="0px" y="0px"
	 width="1002px" height="1002px" viewBox="0 0 1002 1002" enable-background="new 0 0 1002 1002" xml:space="preserve">
<g>
	<g>
		<path fill="#FFC600" d="M143.274,472.457c6.582-9.357,11.729-16.975,15.42-22.866c3.683-5.898,6.517-11.789,8.485-17.667
			c1.971-5.881,2.331-11.358,1.066-16.437c-1.314-5.25-3.587-9.047-6.821-11.403c-3.235-2.356-7.526-2.869-12.857-1.539
			c-5.165,1.288-8.768,3.931-10.785,7.916c-2.025,3.993-2.434,8.765-1.24,14.325l-14.435,3.6
			c-2.225-10.039-1.13-18.424,3.284-25.146c4.403-6.722,11.031-11.187,19.87-13.391c9.534-2.378,17.653-1.612,24.338,2.298
			c6.693,3.91,11.127,10.235,13.307,18.979c1.569,6.302,1.488,12.768-0.257,19.386s-4.251,12.771-7.526,18.459
			c-3.266,5.702-7.565,12.413-12.889,20.151l-4.597,6.725l41.609-10.373l3.105,12.468l-63.783,15.902l-2.715-10.89L143.274,472.457z
			"/>
		<path fill="#FFC600" d="M190.237,395.227l-3.402-13.653l27.292-6.804l23.858,95.683l-15.092,3.762l-20.455-82.032L190.237,395.227
			z"/>
		<path fill="#FFC600" d="M254.068,464.484c-2.298-1.374-3.787-3.417-4.46-6.125c-0.671-2.711-0.319-5.221,1.058-7.519
			c1.376-2.291,3.419-3.786,6.132-4.461c2.627-0.658,5.083-0.286,7.382,1.092c2.298,1.385,3.779,3.428,4.459,6.14
			c0.681,2.709,0.32,5.213-1.056,7.504c-1.378,2.298-3.38,3.776-6.005,4.431C258.864,466.225,256.366,465.866,254.068,464.484z"/>
		<path fill="#FFC600" d="M315.978,376.495c3.859-3.335,8.503-5.685,13.931-7.038c6.389-1.592,12.545-1.492,18.469,0.286
			c5.925,1.767,11.081,5.112,15.459,10.015c4.388,4.893,7.487,10.983,9.295,18.246c1.809,7.262,1.938,14.121,0.393,20.598
			c-1.539,6.474-4.523,11.955-8.936,16.444c-4.403,4.499-9.76,7.527-16.059,9.098c-5.605,1.399-10.84,1.54-15.716,0.435
			c-4.875-1.105-9.008-3.046-12.394-5.833l2.618,10.498l-14.97,3.731l-24.211-97.122l14.964-3.731l8.871,35.571
			C309.351,383.551,312.112,379.819,315.978,376.495z M351.597,389.636c-2.962-3.121-6.364-5.191-10.199-6.239
			c-3.836-1.041-7.679-1.078-11.529-0.121c-3.764,0.941-7.085,2.791-9.976,5.561c-2.89,2.764-4.908,6.236-6.044,10.426
			c-1.146,4.186-1.088,8.774,0.16,13.759c1.24,4.989,3.345,9.082,6.332,12.293c2.987,3.207,6.397,5.354,10.256,6.442
			c3.843,1.081,7.645,1.153,11.409,0.213c3.85-0.957,7.212-2.842,10.096-5.653c2.873-2.808,4.875-6.353,5.996-10.617
			c1.113-4.286,1.049-8.913-0.193-13.901C356.665,396.812,354.558,392.761,351.597,389.636z"/>
		<path fill="#FFC600" d="M375.824,346.164c-2.298-1.378-3.779-3.417-4.46-6.139c-0.671-2.708-0.329-5.223,1.056-7.511
			c1.378-2.298,3.419-3.779,6.134-4.454c2.625-0.654,5.083-0.304,7.381,1.082c2.297,1.378,3.777,3.428,4.45,6.136
			c0.681,2.722,0.336,5.226-1.049,7.517c-1.376,2.298-3.378,3.776-6.004,4.431C380.619,347.9,378.122,347.55,375.824,346.164z
			 M393.075,354.967l18.03,72.316l-14.963,3.731l-18.038-72.317L393.075,354.967z"/>
		<path fill="#FFC600" d="M439.959,418.075c-5.021-0.934-9.28-2.846-12.787-5.733c-3.514-2.896-5.899-6.497-7.166-10.831
			l15.484-3.858c1.034,2.997,3.139,5.188,6.317,6.58c3.178,1.389,6.782,1.581,10.809,0.575c4.203-1.047,7.26-2.666,9.174-4.871
			c1.914-2.185,2.553-4.558,1.92-7.097c-0.672-2.705-2.464-4.399-5.379-5.068c-2.906-0.672-7.357-1.092-13.347-1.271
			c-5.796-0.131-10.575-0.479-14.339-1.027c-3.762-0.544-7.245-1.96-10.462-4.221c-3.211-2.267-5.405-5.764-6.582-10.487
			c-0.959-3.858-0.705-7.651,0.777-11.417c1.473-3.762,4.106-7.086,7.895-9.987c3.786-2.891,8.43-5.033,13.946-6.411
			c8.222-2.05,15.363-1.612,21.44,1.288c6.06,2.901,10.166,7.89,12.304,14.983l-14.955,3.73c-1.073-3.176-3.027-5.426-5.875-6.77
			c-2.835-1.333-6.277-1.498-10.296-0.499c-3.94,0.981-6.773,2.477-8.503,4.492c-1.729,2.012-2.29,4.251-1.681,6.69
			c0.48,1.933,1.584,3.376,3.314,4.341c1.729,0.961,3.683,1.561,5.885,1.805c2.201,0.245,5.412,0.438,9.631,0.593
			c5.605,0.1,10.265,0.444,13.995,1.044c3.729,0.603,7.164,1.995,10.312,4.189c3.146,2.191,5.349,5.589,6.589,10.212
			c1.034,4.113,0.808,8.072-0.665,11.875c-1.464,3.801-4.051,7.143-7.75,10.009c-3.698,2.876-8.342,5.016-13.945,6.411
			C450.334,418.764,444.979,419.012,439.959,418.075z"/>
		<path fill="#FFC600" d="M540.16,373.501c6.597-9.356,11.737-16.978,15.42-22.868c3.689-5.895,6.517-11.786,8.494-17.663
			c1.978-5.884,2.322-11.358,1.058-16.437c-1.306-5.251-3.58-9.051-6.814-11.408c-3.233-2.353-7.526-2.866-12.857-1.536
			c-5.171,1.288-8.759,3.928-10.777,7.917c-2.032,3.99-2.449,8.762-1.248,14.322l-14.435,3.6
			c-2.226-10.038-1.128-18.425,3.274-25.143c4.42-6.725,11.033-11.189,19.88-13.395c9.535-2.377,17.653-1.609,24.338,2.298
			c6.692,3.91,11.128,10.238,13.305,18.982c1.578,6.302,1.49,12.765-0.256,19.383c-1.745,6.618-4.251,12.768-7.525,18.459
			c-3.274,5.701-7.565,12.416-12.88,20.153l-4.604,6.726l41.606-10.377l3.105,12.465l-63.783,15.906l-2.713-10.89L540.16,373.501z"
			/>
		<path fill="#FFC600" d="M597.538,284.054c4.596-5.973,11.362-10.075,20.279-12.301c6.132-1.526,11.698-1.75,16.7-0.686
			c5.013,1.082,9.119,3.22,12.33,6.404c3.218,3.199,5.412,7.166,6.597,11.882c1.344,5.427,1.056,10.425-0.865,14.993
			c-1.929,4.582-4.747,8.021-8.439,10.339l0.128,0.521c5.557,0.286,10.295,2.149,14.22,5.581c3.922,3.441,6.692,8.396,8.31,14.872
			c1.288,5.164,1.249,10.043-0.112,14.659c-1.361,4.62-4.067,8.671-8.125,12.137c-4.06,3.47-9.328,6.016-15.796,7.631
			c-9.457,2.356-17.83,1.867-25.115-1.475c-7.302-3.334-12.297-9.494-15.003-18.496l14.435-3.601
			c1.504,4.555,4.243,7.886,8.213,10.008c3.972,2.133,8.711,2.498,14.227,1.127c5.332-1.333,9.08-3.817,11.233-7.476
			c2.162-3.648,2.658-7.786,1.505-12.43c-1.529-6.115-4.564-9.995-9.095-11.604c-4.539-1.605-10.84-1.412-18.886,0.593l-3.411,0.851
			l-3.075-12.337l3.547-0.883c7.062-1.85,12.169-4.382,15.324-7.583c3.145-3.207,4.115-7.259,2.89-12.157
			c-1.049-4.194-3.235-7.2-6.573-9.026c-3.331-1.809-7.493-2.102-12.473-0.856c-4.908,1.22-8.406,3.418-10.489,6.586
			c-2.089,3.173-2.946,6.659-2.552,10.466l-14.572,3.631C591.39,297.16,592.944,290.034,597.538,284.054z"/>
		<path fill="#FFC600" d="M686.397,356.692c-2.298-1.378-3.779-3.417-4.459-6.125c-0.681-2.715-0.32-5.22,1.056-7.518
			c1.378-2.294,3.419-3.786,6.141-4.465c2.627-0.654,5.083-0.282,7.375,1.096c2.298,1.385,3.786,3.425,4.458,6.14
			c0.682,2.704,0.329,5.212-1.056,7.5c-1.376,2.298-3.378,3.775-6.005,4.434C691.193,358.429,688.695,358.074,686.397,356.692z"/>
		<path fill="#FFC600" d="M739.636,257.682c-3.035-1.377-6.83-1.492-11.384-0.36c-6.909,1.726-11.409,5.66-13.498,11.798
			c-2.098,6.151-1.705,15.363,1.168,27.662c1.321-4.427,3.906-8.225,7.749-11.412c3.86-3.196,8.318-5.422,13.395-6.688
			c5.772-1.439,11.185-1.461,16.229-0.067c5.035,1.389,9.391,4.131,13.065,8.243c3.667,4.1,6.325,9.426,7.958,15.992
			c1.528,6.132,1.69,11.899,0.48,17.312c-1.202,5.412-3.827,10.084-7.861,14.018c-4.036,3.938-9.385,6.725-16.037,8.382
			c-9.006,2.25-16.571,2.026-22.681-0.682c-6.108-2.704-11.104-7.432-14.97-14.181c-3.868-6.748-7.149-15.555-9.855-26.396
			c-7.982-32.031-0.689-50.856,21.88-56.487c8.759-2.181,16.235-1.536,22.44,1.933c6.213,3.469,10.616,8.561,13.219,15.246
			l-13.787,3.435C745.176,261.648,742.678,259.066,739.636,257.682z M724.536,300.274c-2.921,4.121-3.626,9.199-2.12,15.235
			c1.503,6.043,4.427,10.401,8.766,13.085c4.339,2.687,9.607,3.252,15.821,1.701c5.523-1.378,9.446-4.168,11.792-8.375
			c2.337-4.206,2.802-9.157,1.385-14.842c-1.481-5.95-4.218-10.312-8.215-13.081c-3.985-2.777-8.999-3.404-15.043-1.898
			C731.59,293.433,727.459,296.161,724.536,300.274z"/>
		<path fill="#FFC600" d="M798.087,328.843c-2.29-1.375-3.779-3.421-4.46-6.129c-0.671-2.712-0.32-5.216,1.058-7.514
			c1.385-2.292,3.426-3.787,6.139-4.463c2.626-0.658,5.085-0.286,7.383,1.093c2.296,1.381,3.786,3.429,4.458,6.14
			c0.674,2.708,0.321,5.209-1.056,7.504c-1.378,2.298-3.38,3.775-6.005,4.43C802.89,330.582,800.385,330.224,798.087,328.843z"/>
	</g>
	<g>
		<path fill="#FFC600" d="M256.327,681.164c11.064-16.592,19.758-33.226,26.05-49.903c6.301-16.668,7.734-31.874,4.317-45.59
			c-3.227-12.93-8.896-22.339-17.013-28.24c-8.125-5.888-19.15-7.1-33.071-3.634c-13.522,3.376-22.962,10.214-28.311,20.525
			c-5.349,10.308-6.564,22.604-3.635,36.867l-26.251,6.542c-4.763-22.469-2.289-41.349,7.414-56.659
			c9.703-15.296,24.594-25.455,44.69-30.465c20.479-5.103,38.139-3.49,52.997,4.837c14.861,8.344,24.771,22.455,29.729,42.333
			c4.122,16.511,3.2,33.798-2.754,51.864c-5.95,18.065-13.715,34.572-23.291,49.521c-9.583,14.955-22.158,32.729-37.731,53.289
			l102.619-25.587l5.653,22.69l-143.483,35.771l-4.835-19.393C229.619,719.353,245.254,697.752,256.327,681.164z"/>
		<path fill="#FFC600" d="M351.789,531.579c6.349-21.967,23.434-36.426,51.288-43.368c27.634-6.894,49.42-2.125,65.342,14.287
			c15.924,16.412,28.15,41.725,36.675,75.924c8.681,34.804,9.849,63.235,3.523,85.303c-6.333,22.083-23.313,36.542-50.95,43.442
			c-27.852,6.936-49.74,2.164-65.688-14.362c-15.947-16.509-28.253-42.173-36.932-76.968
			C346.521,581.633,345.433,553.549,351.789,531.579z M463.84,541.973c-5.285-11.455-12.378-19.984-21.265-25.588
			c-8.894-5.595-20.006-6.734-33.328-3.41c-13.522,3.369-22.898,9.623-28.124,18.729c-5.221,9.13-7.479,19.988-6.767,32.58
			c0.713,12.609,3.227,27.559,7.542,44.859c4.459,17.895,9.343,32.632,14.658,44.181c5.31,11.576,12.41,20.154,21.312,25.742
			c8.888,5.592,20.095,6.711,33.626,3.331c13.322-3.313,22.593-9.542,27.821-18.647c5.219-9.113,7.469-20.024,6.732-32.733
			c-0.735-12.691-3.345-28.005-7.805-45.899C473.928,567.814,469.132,553.445,463.84,541.973z"/>
		<path fill="#FFC600" d="M599.66,595.565c11.064-16.599,19.759-33.232,26.052-49.91c6.301-16.663,7.741-31.875,4.315-45.586
			c-3.218-12.93-8.895-22.338-17.012-28.239c-8.127-5.892-19.151-7.107-33.073-3.635c-13.522,3.373-22.953,10.211-28.311,20.529
			c-5.347,10.304-6.564,22.597-3.634,36.86l-26.25,6.545c-4.765-22.47-2.291-41.355,7.421-56.655
			c9.694-15.303,24.594-25.464,44.672-30.473c20.48-5.105,38.15-3.49,53.008,4.837c14.868,8.345,24.771,22.456,29.726,42.334
			c4.115,16.509,3.202,33.794-2.754,51.863c-5.941,18.066-13.715,34.579-23.289,49.528c-9.576,14.955-22.151,32.729-37.732,53.285
			l102.621-25.587l5.652,22.683l-143.483,35.778l-4.835-19.396C572.952,633.744,588.587,612.157,599.66,595.565z"/>
		<path fill="#FFC600" d="M702.817,595.032l-5.14-20.586l68.562-171.078l32.513-8.106l35.402,141.988l29.83-7.438l5.877,23.568
			l-29.831,7.438l11.977,48.029l-26.851,6.693l-11.969-48.028L702.817,595.032z M780.163,429.998l-51.904,133.655l80.243-20.01
			L780.163,429.998z"/>
	</g>
	<g>
		<g>
			<path fill="#FFC600" d="M501.382,15.541c53.702,0,106.756,8.915,157.691,26.498c50.087,17.29,96.788,42.481,138.803,74.875
				c42.413,32.7,78.841,71.817,108.273,116.267c30.452,45.988,52.722,96.701,66.192,150.729
				c15.867,63.638,18.796,128.471,8.709,192.698c-9.745,62.045-31.164,120.927-63.661,175.012
				c-32.498,54.085-74.432,100.64-124.638,138.371c-51.974,39.061-110.594,66.91-174.233,82.776
				c-38.719,9.655-78.391,14.552-117.911,14.552c-53.702,0-106.756-8.915-157.689-26.498c-50.086-17.289-96.786-42.48-138.8-74.875
				c-42.411-32.698-78.838-71.815-108.27-116.265c-30.451-45.988-52.721-96.701-66.191-150.729
				c-15.865-63.637-18.793-128.469-8.704-192.696c9.747-62.044,31.167-120.927,63.665-175.013
				c32.498-54.086,74.433-100.643,124.64-138.376c51.974-39.061,110.593-66.912,174.229-82.78
				C422.202,20.435,461.867,15.541,501.382,15.541 M501.381,1.43c-40.045,0-80.695,4.84-121.308,14.965
				C112.196,83.189-50.818,354.491,15.964,622.365C72.628,849.629,276.52,1001.43,500.607,1001.43
				c40.045,0,80.713-4.844,121.326-14.972c267.883-66.787,430.89-338.082,364.1-605.963C929.371,153.233,725.469,1.43,501.381,1.43
				L501.381,1.43z"/>
		</g>
	</g>
</g>
</svg>
